# AST/ASF file generated using VICON BodyLanguage
# -----------------------------------------------
:version 1.10
:name VICON
:units
  mass 1.0
  length 0.45
  angle deg
:documentation
   .ast/.asf automatically generated from VICON data using
   VICON BodyBuilder and BodyLanguage model FoxedUp or BRILLIANT.MOD
:root
   order TX TY TZ RX RY RZ
   axis XYZ
   position 0 0 0  
   orientation 0 0 0 
:bonedata
  begin
     id 1 
     name lhipjoint
     direction 0.716248 -0.617586 0.324924 
     length 2.63557 
     axis 0 0 0  XYZ
  end
  begin
     id 2 
     name lfemur
     direction 0.34202 -0.939693 0  
     length 7.01235  
     axis 0 0 20  XYZ
    dof rx ry rz
    limits (-160.0 20.0)
           (-70.0 70.0)
           (-60.0 70.0)
  end
  begin
     id 3 
     name ltibia
     direction 0.34202 -0.939693 0   
     length 8.14348   
     axis 0 0 20   XYZ
    dof rx
    limits (-10.0 170.0)
  end
  begin
     id 4 
     name lfoot
     direction 0.0982064 -0.26982 0.95789   
     length 1.99077   
     axis -90 7.62852e-016 20   XYZ
    dof rx rz
    limits (-45.0 90.0)
           (-70.0 20.0)
  end
  begin
     id 5 
     name ltoes
     direction 1.53511e-011 -4.21891e-011 1   
     length 0.99735   
     axis -90 7.62852e-016 20   XYZ
    dof rx
    limits (-90.0 20.0)
  end
  begin
     id 6 
     name rhipjoint
     direction -0.687828 -0.642391 0.337975   
     length 2.5338  
     axis 0 0 0  XYZ 
  end
  begin
     id 7 
     name rfemur
     direction -0.34202 -0.939693 0   
     length 6.90199   
     axis 0 0 -20   XYZ
    dof rx ry rz
    limits (-160.0 20.0)
           (-70.0 70.0)
           (-70.0 60.0)
  end
  begin
     id 8 
     name rtibia
     direction -0.34202 -0.939693 0   
     length 8.07725   
     axis 0 0 -20   XYZ
    dof rx
    limits (-10.0 170.0)
 end
 begin
     id 9 
     name rfoot
     direction -0.0912384 -0.250675 0.963762   
     length 2.11621  
     axis -90 -7.62852e-016 -20   XYZ
    dof rx rz
    limits (-45.0 90.0)
           (-20.0 70.0)
  end
  begin
     id 10 
     name rtoes
     direction -1.5359e-011 -4.21894e-011 1   
     length 1.06031   
     axis -90 -7.62852e-016 -20   XYZ
    dof rx
    limits (-90.0 20.0)
  end
  begin
     id 11 
     name lowerback
     direction -0.0403572 0.987953 -0.149396   
     length 2.05637   
     axis 0 0 0   XYZ
    dof rx ry rz
    limits (-20.0 45.0)
           (-30.0 30.0)
           (-30.0 30.0)
  end
  begin
     id 12 
     name upperback
     direction -0.00512151 0.997598 0.0690792   
     length 2.01086   
     axis 0 0 0   XYZ
    dof rx ry rz
    limits (-20.0 45.0)
           (-30.0 30.0)
           (-30.0 30.0)
  end
  begin
     id 13 
     name thorax
     direction 0.0136133 0.989392 0.14463   
     length 2.09035   
     axis 0 0 0   XYZ
    dof rx ry rz
    limits (-20.0 45.0)
           (-30.0 30.0)
           (-30.0 30.0)
  end
  begin
     id 14 
     name lowerneck
     direction 0.0250714 0.992811 0.11704   
     length 1.70806   
     axis 0 0 0   XYZ
    dof rx ry rz
    limits (-20.0 45.0)
           (-30.0 30.0)
           (-30.0 30.0)
  end
  begin
     id 15 
     name upperneck
     direction -0.0519205 0.998394 -0.0226787   
     length 1.6689   
     axis 0 0 0   XYZ
    dof rx ry rz
    limits (-20.0 45.0)
           (-30.0 30.0)
           (-30.0 30.0)
  end
  begin
     id 16
     name head
     direction -0.0201693 0.999547 -0.0223192  
     length 1.83412  
     axis 0 0 0   XYZ
    dof rx ry rz
    limits (-20.0 45.0)
           (-30.0 30.0)
           (-30.0 30.0)
  end
  begin
     id 17 
     name lclavicle
     direction 0.89585 0.444077 -0.0157448  
     length 3.39587  
     axis 0 0 0   XYZ
    dof ry rz
    limits (-20.0 10.0)
           (0.0 20.0)
  end
  begin
     id 18 
     name lhumerus
     direction 1 -4.48956e-011 1.99132e-028   
     length 5.79199   
     axis 180 -30 -90   XYZ
    dof rx ry rz
    limits (-60.0 90.0)
           (-90.0 90.0)
           (-90.0 90.0)
  end
  begin
     id 19
     name lradius
     direction 1 -4.48974e-011 8.72912e-028   
     length 3.49908   
     axis 180 -30 -90   XYZ
    dof rx
    limits (-10.0 170.0)
  end
  begin
     id 20
     name lwrist
     direction 1 -4.48994e-011 4.76442e-027   
     length 1.74954   
     axis -3.27502e-015 90 90   XYZ
    dof ry
    limits (-180.0 0.0)
 end
  begin
     id 21 
     name lhand
     direction 1 -4.48945e-011 9.531e-027   
     length 0.593861   
     axis -6.08098e-015 90 90   XYZ
    dof rx rz
    limits (-90.0 90.0)
           (-45.0 45.0)
  end
  begin
     id 22 
     name lfingers
     direction 1 -4.48945e-011 1.9062e-026   
     length 0.478786   
     axis -1.21619e-014 90 90   XYZ
    dof rx
    limits (0.0 90.0)
  end
  begin
     id 23
     name lthumb
     direction 0.707107 -6.34904e-011 0.707107   
     length 0.687444   
     axis -90 45 -9.86923e-015   XYZ
    dof rx rz
    limits (-45.0 45.0)
           (-45.0 45.0)
  end
  begin
     id 24 
     name rclavicle
     direction -0.940466 0.338394 0.0318182   
     length 3.51226  
     axis 0 0 0   XYZ 
    dof ry rz
    limits (-10.0 20.0)
           (-20.0 0.0)
  end
  begin
     id 25 
     name rhumerus
     direction -1 -4.48976e-011 2.0905e-027  
     length 5.73799   
     axis 180 30 90   XYZ
    dof rx ry rz
    limits (-90.0 60.0)
           (-90.0 90.0)
           (-90.0 90.0)
  end
  begin
     id 26 
     name rradius
     direction -1 -4.48968e-011 -9.39692e-029   
     length 3.57916   
     axis 180 30 90   XYZ
    dof rx
    limits (-10.0 170.0)
  end
  begin
     id 27 
     name rwrist
     direction -1 -4.48959e-011 4.7652e-027   
     length 1.78958   
     axis -3.27502e-015 -90 -90   XYZ
    dof ry
    limits (-180.0 0.0)
  end
  begin
     id 28
     name rhand
     direction -1 -4.49042e-011 9.5267e-027   
     length 0.615577   
     axis -6.08098e-015 -90 -90   XYZ
    dof rx rz
    limits (-90.0 90.0)
           (-45.0 45.0)
  end
  begin
     id 29
     name rfingers
     direction -1 -4.48935e-011 1.90629e-026   
     length 0.496294   
     axis -1.21619e-014 -90 -90   XYZ
    dof rx
    limits (0.0 90.0)
  end
  begin
     id 30
     name rthumb
     direction -0.707107 -6.34977e-011 0.707107   
     length 0.712582   
     axis -90 -45 9.86923e-015   XYZ
    dof rx rz
    limits (-45.0 45.0)
           (-45.0 45.0)
  end
:hierarchy
  begin
    root lhipjoint rhipjoint lowerback
    lhipjoint lfemur
    lfemur ltibia
    ltibia lfoot
    lfoot ltoes
    rhipjoint rfemur
    rfemur rtibia
    rtibia rfoot
    rfoot rtoes
    lowerback upperback
    upperback thorax
    thorax lowerneck lclavicle rclavicle
    lowerneck upperneck
    upperneck head
    lclavicle lhumerus
    lhumerus lradius
    lradius lwrist
    lwrist lhand lthumb
    lhand lfingers
    rclavicle rhumerus
    rhumerus rradius
    rradius rwrist
    rwrist rhand rthumb
    rhand rfingers
  end

#!OML:ASF H:\Terrain\Patient Classification 1\PaulMetrics\March17Take5\PaulMetrics.ASF
:FULLY-SPECIFIED
:DEGREES
1174
root 6.51854 16.657 -10.0353 5.11283 8.41997 3.46348
lowerback 4.4354 -1.55277 -5.52465
upperback -2.3864 -2.39339 0.947463
thorax -4.70776 -0.994946 4.28496
lowerneck -6.2339 3.27083 2.45432
upperneck 3.09093 4.27395 -2.35875
head 2.1604 2.09613 -1.00723
rclavicle -3.19049e-014 -1.78906e-014
rhumerus -51.2686 9.00828 -88.7979
rradius 41.0202
rwrist -11.6985
rhand -24.335 -37.0161
rfingers 7.12502
rthumb 2.15385 293.015
lclavicle -3.19049e-014 -1.78906e-014
lhumerus -34.9733 -23.7502 88.759
lradius 73.0694
lwrist 26.2863
lhand -14.9227 -27.8816
lfingers 7.12502
lthumb 11.2393 1.79727
rfemur -41.1669 2.43935 17.5443
rtibia 38.455
rfoot -3.57969 -11.1566
rtoes 2.38454
lfemur 7.79124 -3.56336 -25.4886
ltibia 30.73
lfoot -12.4665 2.51608
ltoes -17.8463
1175
root 6.49567 16.6837 -9.85947 4.92163 8.27123 3.31851
lowerback 4.36717 -1.58423 -5.45812
upperback -2.26182 -2.42086 1.01602
thorax -4.53457 -1.01821 4.31526
lowerneck -6.67816 3.33614 2.40674
upperneck 3.51385 4.35218 -2.16507
head 2.37688 2.1366 -0.92545
rclavicle 8.95773e-015 -8.34896e-015
rhumerus -50.7793 8.95134 -88.7217
rradius 40.5202
rwrist -11.4075
rhand -24.2512 -37.1654
rfingers 7.12502
rthumb 2.23475 292.867
lclavicle 8.95773e-015 -8.34896e-015
lhumerus -35.2141 -23.6401 89.0541
lradius 71.727
lwrist 25.7797
lhand -15.4646 -27.4005
lfingers 7.12502
lthumb 10.7166 2.30612
rfemur -40.6718 2.41323 18.1038
rtibia 39.0561
rfoot -3.3847 -10.7704
rtoes 3.30932
lfemur 7.07952 -2.87846 -25.0695
ltibia 32.9324
lfoot -10.3166 2.60854
ltoes -17.9857
1176
root 6.46925 16.7145 -9.6813 4.74919 8.24215 3.28649
lowerback 4.29812 -1.63047 -5.579
upperback -2.14984 -2.4805 1.08344
thorax -4.36401 -1.05151 4.45234
lowerneck -7.05691 3.34874 2.2614
upperneck 3.8754 4.36504 -1.90785
head 2.55625 2.14616 -0.809609
rclavicle -8.19987e-015 -1.59028e-014
rhumerus -50.0839 8.34946 -87.8516
rradius 40.7053
rwrist -6.52848
rhand -16.3314 -41.2677
rfingers 7.12502
rthumb 9.88045 288.984
lclavicle -8.19987e-015 -1.59028e-014
lhumerus -35.4917 -23.3018 89.3841
lradius 70.3947
lwrist 25.0343
lhand -16.2404 -27.2118
lfingers 7.12502
lthumb 9.96821 2.5322
rfemur -40.1433 2.54585 18.4164
rtibia 39.6266
rfoot -3.75973 -10.6093
rtoes 3.76098
lfemur 6.17176 -2.24634 -24.6879
ltibia 35.3435
lfoot -7.92614 2.79413
ltoes -16.9398
1177
root 6.44194 16.7408 -9.50868 4.73841 8.20995 3.20872
lowerback 4.14959 -1.69695 -5.6587
upperback -2.16425 -2.56121 1.19528
thorax -4.27743 -1.09044 4.61389
lowerneck -7.20366 3.34336 2.18691
upperneck 4.08452 4.36443 -1.90008
head 2.65163 2.14385 -0.79083
rclavicle 2.75068e-014 2.66371e-014
rhumerus -49.9046 8.74179 -88.2166
rradius 39.9405
rwrist -9.83912
rhand -20.6556 -37.8413
rfingers 7.12502
rthumb 5.70691 292.256
lclavicle 2.75068e-014 2.66371e-014
lhumerus -36.0377 -22.6009 89.7777
lradius 69.3234
lwrist 23.8559
lhand -16.7275 -27.0983
lfingers 7.12502
lthumb 9.49823 2.66761
rfemur -39.7826 2.7896 18.7543
rtibia 40.1642
rfoot -4.30709 -10.6929
rtoes 3.0187
lfemur 4.94082 -1.89659 -24.3226
ltibia 37.9563
lfoot -5.81457 3.32373
ltoes -15.1315
1178
root 6.41321 16.7529 -9.34787 4.67922 8.14438 2.91708
lowerback 4.17311 -1.71242 -5.46975
upperback -2.21322 -2.56848 1.30455
thorax -4.3435 -1.09461 4.62456
lowerneck -7.10018 3.34965 2.1968
upperneck 4.05621 4.37651 -1.94869
head 2.62479 2.14906 -0.809346
rclavicle 1.2424e-016 4.37326e-015
rhumerus -49.9611 8.70713 -88.4488
rradius 39.8988
rwrist -12.2916
rhand -22.9185 -36.1575
rfingers 7.12502
rthumb 3.52178 293.892
lclavicle 1.2424e-016 4.37326e-015
lhumerus -36.5906 -21.9723 90.1117
lradius 68.2139
lwrist 22.6906
lhand -16.7053 -27.0804
lfingers 7.12502
lthumb 9.51972 2.68455
rfemur -39.3682 3.10994 19.3169
rtibia 40.5771
rfoot -4.80712 -10.9942
rtoes 2.36797
lfemur 3.63791 -1.49556 -23.7651
ltibia 40.708
lfoot -3.9239 3.93717
ltoes -13.6392
1179
root 6.38438 16.7575 -9.18977 4.52207 8.19074 2.77636
lowerback 4.43009 -1.71386 -5.33157
upperback -2.28741 -2.57938 1.268
thorax -4.57283 -1.09514 4.52235
lowerneck -6.87753 3.34696 2.13288
upperneck 4.02352 4.36678 -1.6739
head 2.56186 2.15342 -0.71398
rclavicle -6.68413e-015 0
rhumerus -50.0578 8.25563 -88.4731
rradius 40.0049
rwrist -12.7952
rhand -23.6956 -35.9565
rfingers 7.12502
rthumb 2.77129 294.082
lclavicle -6.68413e-015 0
lhumerus -37.0831 -22.1196 90.3895
lradius 66.8963
lwrist 22.2207
lhand -15.9048 -26.9576
lfingers 7.12502
lthumb 10.292 2.77055
rfemur -38.7532 3.2352 19.6929
rtibia 40.7876
rfoot -5.42407 -11.2073
rtoes 3.49346
lfemur 2.35668 -0.761824 -23.313
ltibia 43.5182
lfoot -1.58718 4.27603
ltoes -15.4218
1180
root 6.35916 16.7799 -9.02337 4.41763 8.21015 2.5469
lowerback 4.53549 -1.76032 -5.11332
upperback -2.38446 -2.63377 1.29591
thorax -4.73544 -1.12103 4.43996
lowerneck -6.7101 3.26605 2.11434
upperneck 4.02263 4.25707 -1.55762
head 2.52423 2.10314 -0.681025
rclavicle -3.23149e-014 -2.0276e-014
rhumerus -49.965 8.44693 -88.7061
rradius 39.719
rwrist -12.905
rhand -25.1561 -35.3833
rfingers 7.12502
rthumb 1.36083 294.641
lclavicle -3.23149e-014 -2.0276e-014
lhumerus -37.4885 -22.3875 90.719
lradius 65.27
lwrist 21.8308
lhand -14.4212 -27.0298
lfingers 7.12502
lthumb 11.7229 2.62218
rfemur -38.0911 3.32947 20.1519
rtibia 40.7946
rfoot -6.06684 -11.3342
rtoes 3.96037
lfemur 0.856492 -0.154611 -22.8486
ltibia 46.2679
lfoot 0.746865 4.48225
ltoes -17.3884
1181
root 6.34475 16.8178 -8.85151 4.36138 8.06895 2.13124
lowerback 4.34013 -1.83131 -4.72051
upperback -2.43121 -2.68766 1.43926
thorax -4.67621 -1.15919 4.36515
lowerneck -6.41076 3.25423 2.13967
upperneck 3.79707 4.24691 -1.63374
head 2.39607 2.09763 -0.716104
rclavicle -6.75868e-015 1.03368e-014
rhumerus -49.656 9.17235 -88.901
rradius 39.1538
rwrist -12.3614
rhand -24.711 -34.9844
rfingers 7.12502
rthumb 1.79071 295.043
lclavicle -6.75868e-015 1.03368e-014
lhumerus -37.8318 -22.093 91.0233
lradius 63.5456
lwrist 21.1246
lhand -13.3438 -27.3794
lfingers 7.12502
lthumb 12.7618 2.21063
rfemur -37.3819 3.42477 20.8277
rtibia 40.7027
rfoot -6.59368 -11.3266
rtoes 3.08801
lfemur -0.72605 0.141657 -22.2942
ltibia 48.871
lfoot 2.529 5.18201
ltoes -13.9171
1182
root 6.33407 16.8481 -8.69094 4.29111 7.94367 1.80011
lowerback 4.23456 -1.84414 -4.29917
upperback -2.47398 -2.67062 1.50937
thorax -4.67639 -1.16233 4.1963
lowerneck -6.19525 3.29523 2.26526
upperneck 3.65176 4.30295 -1.80437
head 2.31774 2.1235 -0.793932
rclavicle 1.68159e-014 -1.35174e-014
rhumerus -49.3975 8.84748 -88.3057
rradius 38.9178
rwrist -9.76146
rhand -21.3567 -36.1104
rfingers 7.12502
rthumb 5.02995 293.969
lclavicle 1.68159e-014 -1.35174e-014
lhumerus -38.2463 -21.7499 91.2894
lradius 62.1552
lwrist 20.4369
lhand -12.3461 -27.0485
lfingers 7.12502
lthumb 13.7235 2.47898
rfemur -36.6176 3.27076 21.4705
rtibia 40.5967
rfoot -6.9796 -11.1702
rtoes 1.94175
lfemur -2.12522 0.318444 -21.8517
ltibia 51.2942
lfoot 3.86265 5.92957
ltoes -9.95621
1183
root 6.31763 16.8753 -8.54488 4.1915 7.95764 1.57951
lowerback 4.44642 -1.8664 -3.97431
upperback -2.51451 -2.68725 1.53285
thorax -4.84982 -1.17493 4.04996
lowerneck -6.16745 3.30026 2.32857
upperneck 3.53322 4.31116 -1.95158
head 2.27967 2.12442 -0.852595
rclavicle -2.87617e-015 -1.35174e-014
rhumerus -49.3806 8.625 -88.1135
rradius 39.2265
rwrist -9.51925
rhand -20.5188 -37.2544
rfingers 7.12502
rthumb 5.83898 292.846
lclavicle -2.87617e-015 -1.35174e-014
lhumerus -38.6462 -21.3672 91.4789
lradius 60.9641
lwrist 19.6886
lhand -11.2904 -26.7995
lfingers 7.12502
lthumb 14.7407 2.65641
rfemur -35.8849 3.05391 21.9787
rtibia 40.5082
rfoot -7.38341 -11.0451
rtoes 1.25967
lfemur -3.47797 0.380458 -21.5466
ltibia 53.5812
lfoot 4.5039 6.24778
ltoes -11.008
